# xmcd
# 
# Track frame offsets:
#     180
#     15476
#     30197
#     52938
#     62920
#     84578
# 
# Disc length: 1338
# 
# Revision: 0
# Processed by: cddbd v1.5.2PL0 Copyright (c) Steve Scherf et al.
# Submitted via: fre:ac v1.0.17
# 
DISCID=3a053806
DTITLE=Despise - Who Cares
DYEAR=1993
DGENRE=
TTITLE0=Who Cares
TTITLE1=Blow Job
TTITLE2=S.O.E.
TTITLE3=Sex, Despise, Rock N Roll
TTITLE4=We Gonna Out...
TTITLE5=Farewell  Goodbye
EXTD=
EXTT0=
EXTT1=
EXTT2=
EXTT3=
EXTT4=
EXTT5=
PLAYORDER=
